# xmcd CD database file
#
# Track frame offsets:
#	150
#	22217
#	42897
#	64947
#
# Disc length: 1140 seconds
#
# Revision: 0
# Processed by: cddbd v1.5PL3 Copyright (c) Steve Scherf et al.
# Submitted via: CDex 1.51
#
DISCID=33047204
DTITLE=仲間由紀恵 - 心に私がふたりいる
DYEAR=1997
DGENRE=Vocal
TTITLE0=心に私がふたりいる
TTITLE1=トレモロ
TTITLE2=心に私がふたりいる（オリジナル・カラオケ）
TTITLE3=トレモロ（オリジナル・カラオケ）
EXTD=YEAR: 1997
EXTT0=
EXTT1=
EXTT2=
EXTT3=
PLAYORDER=
